<svg xmlns="http://www.w3.org/2000/svg" xmlns:xlink="http://www.w3.org/1999/xlink" width="100%" height="100%" version="1.1" viewBox="0 0 100 100" xml:space="preserve" style="fill-rule:evenodd;clip-rule:evenodd;stroke-linecap:round;stroke-linejoin:round"><path d="M83.333,54.167c0,20.833 -14.583,31.25 -31.917,37.292c-0.907,0.308 -1.894,0.293 -2.792,-0.042c-17.375,-6 -31.958,-16.417 -31.958,-37.25l0,-29.167c0,-2.286 1.881,-4.167 4.167,-4.167c8.333,0 18.75,-5 26,-11.333c1.816,-1.551 4.518,-1.551 6.333,-0c7.292,6.375 17.667,11.333 26,11.333c2.286,0 4.167,1.881 4.167,4.167l0,29.167Z" style="fill:none;fill-rule:nonzero;stroke:#000;stroke-width:8.33px"/><clipPath id="_clip1"><rect width="41.762" height="94.404" x="8.238" y="2.826"/></clipPath><g clip-path="url(#_clip1)"><path d="M83.333,54.167c0,20.833 -14.583,31.25 -31.917,37.292c-0.907,0.308 -1.894,0.293 -2.792,-0.042c-17.375,-6 -31.958,-16.417 -31.958,-37.25l0,-29.167c0,-2.286 1.881,-4.167 4.167,-4.167c8.333,0 18.75,-5 26,-11.333c1.816,-1.551 4.518,-1.551 6.333,-0c7.292,6.375 17.667,11.333 26,11.333c2.286,0 4.167,1.881 4.167,4.167l0,29.167Z" style="fill:#555;fill-rule:nonzero;stroke:#000;stroke-width:8.33px"/></g><clipPath id="_clip2"><rect width="41.694" height="94.404" x="50" y="2.826"/></clipPath><g clip-path="url(#_clip2)"><path d="M83.333,54.167c0,20.833 -14.583,31.25 -31.917,37.292c-0.907,0.308 -1.894,0.293 -2.792,-0.042c-17.375,-6 -31.958,-16.417 -31.958,-37.25l0,-29.167c0,-2.286 1.881,-4.167 4.167,-4.167c8.333,0 18.75,-5 26,-11.333c1.816,-1.551 4.518,-1.551 6.333,-0c7.292,6.375 17.667,11.333 26,11.333c2.286,0 4.167,1.881 4.167,4.167l0,29.167Z" style="fill:#97ca00;fill-rule:nonzero;stroke:#000;stroke-width:8.33px"/></g><path d="M50,91.667l0,-83.333" style="fill:none;fill-rule:nonzero;stroke:#000;stroke-width:8.33px"/></svg>